<svg xmlns="http://www.w3.org/2000/svg" width="114" height="23" viewBox="0 0 114 23">
          <g fill="none" fill-rule="evenodd">
            <path fill="#EE2737" d="M21.943 11.885c0 6.06-4.913 10.972-10.972 10.972C4.912 22.857 0 17.944 0 11.885 0 5.826 4.912.914 10.971.914c6.06 0 10.972 4.912 10.972 10.971"></path>
            <path fill="#FFF" d="M10.644 11.017c-.05 1.247-.712 2.317-1.672 2.901-.462.281-.79.756-.816 1.32l-.085 1.85c-.023.5-.412.893-.883.893-.473 0-.862-.394-.884-.895l-.086-1.916a1.675 1.675 0 0 0-.796-1.335c-.996-.634-1.658-1.76-1.695-3.087-.035-1.241.049-2.502.247-3.745.072-.46.478-.775.913-.689.432.076.723.511.65.97-.145.914-.213 1.475-.22 2.595-.004.318.239.575.538.575a.563.563 0 0 0 .546-.571L6.397 6.63c0-.51.43-.916.926-.83.39.068.66.457.66.875l.005 3.207c0 .315.24.571.538.571.3 0 .54-.256.538-.574-.004-1.12-.075-1.681-.22-2.597-.074-.458.218-.893.649-.969.423-.084.84.23.913.689a20.09 20.09 0 0 1 .238 4.014zm4.444-5.227c2.09 0 3.136 3.161 3.136 5.25 0 1.13-.612 2.103-1.45 2.678-.404.276-.683.713-.706 1.22l-.1 2.15c-.023.499-.41.89-.88.893-.471-.002-.858-.394-.882-.894l-.099-2.148c-.023-.508-.302-.945-.705-1.22-.839-.576-1.45-1.55-1.45-2.68 0-2.088 1.045-5.25 3.136-5.25z"></path>
            <path fill="#1C1D1D" d="M43.369 10.81c0-3.641 2.88-6.453 6.89-6.453 4.032 0 6.89 2.812 6.89 6.452 0 3.641-2.858 6.453-6.89 6.453-4.01 0-6.89-2.812-6.89-6.453zm10.37 0c0-1.982-1.36-3.457-3.48-3.457s-3.48 1.475-3.48 3.456c0 1.982 1.36 3.457 3.48 3.457s3.48-1.475 3.48-3.457zM38.04 4.353h3.293v12.563c0 3.478-2.666 6.092-6.562 6.092-2.563 0-4.806-.896-6.293-2.477l2.22-2.136c.969.925 2.084 1.466 4.002 1.466 1.902 0 3.34-1.229 3.34-2.9v-1.24h-.047c-.858.95-2.272 1.484-3.966 1.484-3.78 0-6.61-2.737-6.61-6.471 0-3.594 2.76-6.377 6.494-6.377 1.74 0 3.2.51 4.082 1.437h.047V4.354zm-.139 7.123V10.04c0-1.414-1.555-2.667-3.34-2.667-2.25 0-3.71 1.369-3.71 3.363 0 2.158 1.367 3.456 3.57 3.456 1.949 0 3.48-1.206 3.48-2.714zM61.08 7.6h-2.924V4.7h2.924V3.455C61.08 1.313 62.577 0 65.088 0h3.201v2.925h-2.787c-.669 0-1.012.322-1.012.944v.83h4.56V7.6h-4.56v9.306h-3.41V7.6zm14.972-.253c-2.097 0-3.48 1.452-3.48 3.455 0 2.004 1.383 3.455 3.48 3.455 2.096 0 3.479-1.451 3.479-3.455 0-2.003-1.383-3.455-3.48-3.455zm0-2.994c3.983 0 6.887 2.833 6.887 6.449 0 3.616-2.904 6.45-6.887 6.45-3.893.068-6.955-2.88-6.888-6.45-.067-3.57 2.995-6.519 6.888-6.449zm15.132 2.994c-2.095 0-3.477 1.452-3.477 3.455 0 2.004 1.382 3.455 3.477 3.455 2.096 0 3.479-1.451 3.479-3.455 0-2.003-1.383-3.455-3.48-3.455zm0-2.994c3.985 0 6.887 2.833 6.887 6.449 0 3.616-2.902 6.45-6.887 6.45-3.891.068-6.955-2.88-6.886-6.45-.07-3.57 2.995-6.519 6.886-6.449zm18.773 5.643c0-1.451-1.613-2.649-3.479-2.649-2.14 0-3.639 1.406-3.639 3.455 0 2.096 1.429 3.433 3.64 3.433 1.936 0 3.478-1.199 3.478-2.697V9.996zm-4.007-5.643c1.634 0 3.016.46 3.96 1.313h.047V.092h3.41v16.814h-3.157v-1.198h-.045c-.922 1.013-2.351 1.544-4.124 1.544-3.846 0-6.611-2.672-6.611-6.45 0-3.662 2.811-6.449 6.52-6.449z"></path>
          </g>
        </svg>